<svg width="20" height="20" viewBox="0 0 20 20" fill="none" xmlns="http://www.w3.org/2000/svg">
<g clip-path="url(#clip0)">
<path d="M17.5585 2.38989H2.44569C1.09663 2.38989 0 3.48652 0 4.83558V15.1646C0 16.5137 1.09663 17.6103 2.44569 17.6103H17.5543C18.9034 17.6103 20 16.5137 20 15.1646V4.83972C20.0041 3.49066 18.9075 2.38989 17.5585 2.38989ZM18.8868 15.1646C18.8868 15.8971 18.2909 16.4929 17.5585 16.4929H2.44569C1.71322 16.4929 1.11732 15.8971 1.11732 15.1646V4.83972C1.11732 4.10725 1.71322 3.51135 2.44569 3.51135H17.5543C18.2868 3.51135 18.8827 4.10725 18.8827 4.83972V15.1646H18.8868Z" fill="white"/>
<path d="M12.6134 9.87193L17.5048 5.48543C17.7324 5.27851 17.7531 4.92677 17.5462 4.69503C17.3393 4.46743 16.9876 4.44673 16.7558 4.65365L10.0105 10.7079L8.69455 9.5326C8.69042 9.52847 8.68629 9.52433 8.68629 9.5202C8.65729 9.4912 8.62835 9.4664 8.59522 9.44153L3.24038 4.64951C3.00864 4.44259 2.65689 4.46329 2.44998 4.69503C2.24307 4.92677 2.26376 5.27851 2.4955 5.48543L7.44482 9.9092L2.51619 14.5233C2.29273 14.7343 2.28031 15.0861 2.49137 15.3137C2.60309 15.4295 2.75207 15.4917 2.90105 15.4917C3.03761 15.4917 3.17417 15.442 3.28176 15.3427L8.28489 10.6623L9.64222 11.8748C9.74982 11.97 9.88222 12.0155 10.0146 12.0155C10.1471 12.0155 10.2836 11.9659 10.3871 11.8707L11.7817 10.6209L16.7558 15.3468C16.8634 15.4503 17.0041 15.4999 17.1406 15.4999C17.2896 15.4999 17.4345 15.442 17.5462 15.3261C17.7572 15.1027 17.749 14.7467 17.5255 14.5357L12.6134 9.87193Z" fill="white"/>
</g>
<defs>
<clipPath id="clip0">
<rect width="20" height="20" fill="white"/>
</clipPath>
</defs>
</svg>
